<svg width="46" height="43" viewBox="0 0 46 43" fill="none" xmlns="http://www.w3.org/2000/svg"><path d="M17.988 0C27.91-.024 35.95 8.001 36 17.97c.048 9.93-8.03 18.018-17.988 18.03C8.065 36.012-.012 27.95 0 17.994.012 8.038 8.028.024 17.988 0zm.024 4.93A13.047 13.047 0 004.943 17.994c0 7.224 5.842 13.064 13.081 13.064 7.227 0 13.069-5.852 13.057-13.088-.024-7.2-5.867-13.04-13.069-13.04z" fill="#D4DEFB"/><path d="M18.01 4.928c7.203 0 13.045 5.828 13.057 13.04.012 7.236-5.83 13.076-13.056 13.088-7.24 0-13.081-5.828-13.081-13.064 0-7.224 5.842-13.052 13.08-13.064zm-6.825 21.855c2.38 2.38 8.793 3.217 11.174 1.432a47.583 47.583 0 00-2.357-8.365c-2.89.485-7.833 4.383-8.817 6.933zm-4.348-9.119c-.037 2.975.898 5.537 2.842 7.77 2.356-3.569 5.405-6.203 9.546-7.503-.316-.655-.607-1.274-.91-1.882-3.766 1.105-7.568 1.579-11.478 1.615zm10.53-3.35a66.421 66.421 0 00-4.142-6.412C9.958 9.566 7.93 12.128 7.08 15.637c1.288.315 8.199-.583 10.288-1.324zm-1.907-7.2c1.397 2.185 2.77 4.334 4.178 6.52 2.198-.863 4.227-2.053 5.757-4.02-2.951-2.44-6.243-3.254-9.935-2.5zm13.7 10.732c-.073-2.61-.898-4.893-2.538-6.92-1.688 2.052-3.826 3.387-6.207 4.407.292.656.571 1.275.838 1.906.098.231.207.292.45.255 1.542-.194 3.097-.17 4.64-.012.923.11 1.846.23 2.817.364zm-6.983 1.421c.728 2.671 1.445 5.294 2.174 7.916 2.538-1.82 4.117-4.273 4.676-7.43-2.308-.644-4.591-.814-6.85-.486z" fill="#fff"/><path d="M11.191 26.784c.996-2.55 5.94-6.447 8.806-6.932a46.543 46.543 0 012.356 8.365c-2.38 1.773-8.793.947-11.162-1.433zm-4.354-9.117c3.91-.036 7.713-.51 11.478-1.603.291.608.583 1.215.91 1.882-4.141 1.3-7.178 3.934-9.546 7.504-1.943-2.246-2.878-4.808-2.842-7.783zm10.529-3.353c-2.09.74-9 1.64-10.288 1.323.85-3.508 2.879-6.07 6.146-7.734a64.149 64.149 0 014.142 6.411zm-1.901-7.199c3.704-.765 6.996.061 9.935 2.502-1.542 1.966-3.559 3.144-5.757 4.018-1.409-2.185-2.781-4.334-4.178-6.52zm13.698 10.733c-.972-.121-1.895-.255-2.818-.352-1.542-.158-3.097-.182-4.64.012-.242.024-.364-.024-.449-.255-.255-.631-.547-1.25-.838-1.906 2.38-1.02 4.518-2.343 6.206-4.407 1.652 2.003 2.466 4.298 2.539 6.908zm-6.983 1.42c2.259-.328 4.542-.158 6.85.498-.559 3.144-2.138 5.61-4.676 7.43-.729-2.634-1.446-5.257-2.174-7.928z" fill="#D4DEFB"/><circle cx="34.015" cy="30.648" r="10.099" transform="rotate(135 34.015 30.648)" fill="#fff"/><path d="M40.363 24.302a8.975 8.975 0 00-12.695 0 8.975 8.975 0 000 12.695 8.975 8.975 0 0012.695 0 8.975 8.975 0 000-12.695zm-4.901 11.126c0 .24-.195.435-.435.435l-2.025-.003a.435.435 0 01-.435-.435l.015-3.342-3.345.012a.435.435 0 01-.435-.435l.003-2.024c0-.241.194-.435.435-.435l3.342.015-.013-3.345c0-.241.195-.435.436-.435h2.027c.24 0 .435.194.435.435l-.018 3.345 3.345-.013c.24 0 .435.195.435.435v2.027c0 .24-.194.435-.435.435l-3.345-.017.013 3.345z" fill="#4A73E8"/></svg>