<svg width="46" height="43" viewBox="0 0 46 43" fill="none" xmlns="http://www.w3.org/2000/svg"><path d="M36 18.007c-.013 9.955-8.094 18.02-18.02 17.993-9.965-.026-18-8.084-17.98-18.026C.02 8.03 8.094-.026 18.02 0 27.97.026 36.013 8.077 36 18.007zm-20.987-3.822h-2.75c-.309 0-.407.098-.407.4v4.183c0 .322.098.42.413.42h2.495c.079 0 .15.007.236.014v9.456c0 .374.085.466.46.466h3.787c.44 0 .519-.078.519-.525v-9.404h3.932c.354 0 .446-.092.446-.46v-4.09c0-.362-.091-.454-.452-.454h-4.229v-2.357h4.209c.387 0 .472-.092.472-.48V7.368c0-.387-.091-.48-.472-.48-1.274 0-2.554-.012-3.827.007-.493.007-.992.04-1.477.132-1.504.269-2.528 1.13-3.007 2.594-.256.768-.335 1.57-.348 2.37-.013.716 0 1.438 0 2.194z" fill="#D4DEFB"/><circle cx="34.075" cy="30.696" r="10.114" transform="rotate(135 34.075 30.696)" fill="#fff"/><path d="M40.424 24.339a8.989 8.989 0 00-12.715 0 8.989 8.989 0 000 12.714 8.989 8.989 0 0012.715 0 8.989 8.989 0 000-12.714zm-4.91 11.143a.435.435 0 01-.435.436l-2.028-.003a.435.435 0 01-.436-.435l.016-3.348-3.35.012a.435.435 0 01-.436-.435l.002-2.028c0-.241.195-.436.436-.436l3.348.016-.013-3.35c0-.242.195-.437.436-.437h2.03c.241 0 .436.195.436.436l-.018 3.35 3.35-.012c.241 0 .436.195.436.435v2.03a.436.436 0 01-.436.437l-3.35-.018.013 3.35z" fill="#4A73E8"/></svg>