<svg width="47" height="44" viewBox="0 0 47 44" fill="none" xmlns="http://www.w3.org/2000/svg"><path d="M.424 14.11c-.177.812-.247 1.641-.371 2.47 0 .088-.035.194-.053.282v2.188c.07.617.124 1.234.23 1.834.689 4.04 2.527 7.46 5.514 10.265a17.768 17.768 0 006.433 3.863c.83.282 1.378-.123 1.378-.97 0-.335-.017-.688-.017-1.023v-2.081c-.813.053-1.573.159-2.316.123-1.802-.088-3.18-.829-3.888-2.61-.406-1.006-1.025-1.87-1.98-2.434-.193-.106-.353-.283-.494-.459-.159-.194-.106-.406.141-.459.319-.052.654-.088.972-.035 1.079.212 1.838.9 2.386 1.817 1.184 1.975 3.04 2.328 5.02 1.552.088-.035.212-.123.23-.212.158-.846.459-1.605 1.077-2.222-.795-.159-1.573-.282-2.332-.476-1.998-.53-3.659-1.535-4.702-3.404-.653-1.165-.936-2.434-1.06-3.757-.23-2.205.141-4.251 1.644-5.98.07-.088.106-.247.07-.335-.388-1.252-.37-2.505-.017-3.74.265-.97.353-1.005 1.343-.81 1.343.264 2.51.934 3.658 1.64a.747.747 0 00.513.088 17.62 17.62 0 018.465 0c.16.035.389-.018.548-.088.83-.424 1.608-.918 2.457-1.27.6-.247 1.29-.3 1.944-.406.106-.018.318.124.353.23.53 1.41.671 2.84.194 4.303-.07.212-.017.335.106.494.778.9 1.29 1.923 1.503 3.087.282 1.534.159 3.051-.195 4.568-.265 1.147-.76 2.187-1.537 3.087-1.131 1.305-2.634 1.993-4.295 2.381-.654.159-1.325.247-2.015.388.937.97 1.184 2.17 1.167 3.44 0 1.534-.018 3.069-.036 4.603 0 .847.513 1.27 1.273 1.023.07-.017.141-.053.194-.07a21.516 21.516 0 004.224-2.135 18.25 18.25 0 006.256-7.46c.089-.212.177-.406.266-.618 0-.018.017-.035.017-.053.389-.988.707-2.046.955-3.175.23-1.146.353-2.346.353-3.563 0-4.021-1.325-7.725-3.552-10.724-.036-.053-.071-.088-.106-.141-.212-.282-.442-.547-.672-.83-.141-.158-.265-.317-.406-.475-.106-.124-.23-.23-.336-.353a15.715 15.715 0 00-.548-.53c-.088-.07-.16-.158-.247-.229a30.708 30.708 0 00-.849-.723c-.053-.053-.123-.088-.176-.14-.283-.23-.584-.442-.884-.653-.035-.018-.053-.036-.088-.053a15.32 15.32 0 00-1.06-.67c-.019-.018-.036-.018-.054-.036C25.52 1.57 23.894.9 22.18.512 21.26.3 20.306.212 19.37.07c-.053 0-.106-.018-.16-.036A.82.82 0 0018.964 0h-1.962c-.07 0-.159.018-.247.018-.619.088-1.237.158-1.873.264C7.865 1.412 1.89 7.126.424 14.111z" fill="#D4DEFB"/><circle cx="34.075" cy="30.696" r="10.114" transform="rotate(135 34.075 30.696)" fill="#fff"/><path d="M40.424 24.339a8.989 8.989 0 00-12.715 0 8.989 8.989 0 000 12.714 8.989 8.989 0 0012.715 0 8.989 8.989 0 000-12.714zm-4.91 11.143a.435.435 0 01-.435.436l-2.028-.003a.435.435 0 01-.436-.435l.016-3.348-3.35.012a.435.435 0 01-.436-.435l.002-2.028c0-.241.195-.436.436-.436l3.348.016-.013-3.35c0-.242.195-.437.436-.437h2.03c.241 0 .436.195.436.436l-.018 3.35 3.35-.012c.241 0 .436.195.436.435v2.03a.436.436 0 01-.436.437l-3.35-.018.013 3.35z" fill="#4A73E8"/></svg>