<svg width="46" height="43" viewBox="0 0 46 43" fill="none" xmlns="http://www.w3.org/2000/svg"><path d="M0 17.988C.024 8.023 8.101-.036 18.036 0 27.984.037 36.024 8.096 36 18.012 35.976 27.977 27.887 36.036 17.964 36 8.016 35.964-.024 27.904 0 17.988zm22.773 9.855H10.968v-7.78H9.449v9.286h14.83V20.05h-1.506v7.793zm-10.506-1.529h8.952v-1.857h-8.952v1.857zm11.611-19.36c.523 2.975 1.02 5.9 1.543 8.85.656-.11 1.263-.22 1.895-.329-.522-2.973-1.02-5.898-1.543-8.848-.631.11-1.226.207-1.895.328zm1.203 8.958c-1.7-2.488-3.377-4.94-5.065-7.416-.534.364-1.056.716-1.59 1.08 1.7 2.5 3.376 4.953 5.064 7.417.546-.377 1.057-.716 1.591-1.08zm-3.037 3.544c-2.914-.776-5.78-1.553-8.684-2.33-.17.655-.328 1.238-.486 1.857 2.915.79 5.782 1.554 8.673 2.33.17-.643.328-1.237.497-1.857zm.158-.546l.972-1.65c-2.6-1.53-5.15-3.035-7.737-4.564l-.971 1.65c2.599 1.53 5.15 3.035 7.736 4.564zm-9.704 2.221c-.06.656-.121 1.287-.17 1.906 3.012.28 5.963.546 8.951.825.061-.643.11-1.262.17-1.905-3-.28-5.939-.546-8.951-.826z" fill="#D4DEFB"/><circle cx="34.075" cy="30.696" r="10.114" transform="rotate(135 34.075 30.696)" fill="#fff"/><path d="M40.424 24.339a8.989 8.989 0 00-12.715 0 8.989 8.989 0 000 12.714 8.989 8.989 0 0012.715 0 8.989 8.989 0 000-12.714zm-4.91 11.143a.435.435 0 01-.435.436l-2.028-.003a.435.435 0 01-.436-.435l.016-3.348-3.35.012a.435.435 0 01-.436-.435l.002-2.028c0-.241.195-.436.436-.436l3.348.016-.013-3.35c0-.242.195-.437.436-.437h2.03c.241 0 .436.195.436.436l-.018 3.35 3.35-.012c.241 0 .436.195.436.435v2.03a.436.436 0 01-.436.437l-3.35-.018.013 3.35z" fill="#4A73E8"/></svg>