<svg width="46" height="43" viewBox="0 0 46 43" fill="none" xmlns="http://www.w3.org/2000/svg"><path d="M0 18.018C-.024 8.09 8.008.035 17.982 0 27.898-.035 35.976 8.031 36 17.982 36.023 27.91 27.957 35.988 18.018 36 8.067 36.012.024 27.98 0 18.018zm10.128-2.12c.153 1.79 1.06 2.92 2.65 3.58-.013.035-.036.082-.048.118h-1.272c.542 1.59 1.814 2.131 3.156 2.59-1.495 1.12-3.191 1.402-4.957 1.449a.711.711 0 00.27.235c1.496.778 3.05 1.296 4.746 1.32 2.556.035 4.9-.59 6.854-2.309 2.12-1.849 3.392-4.18 3.674-6.971.106-1.107.436-1.979 1.296-2.662.13-.106.223-.247.33-.388.058-.07.105-.165.2-.33-.578.165-1.072.306-1.555.447a.352.352 0 00-.047-.094c.389-.565.789-1.118 1.177-1.684-.035-.023-.07-.059-.094-.082-.412.165-.824.306-1.213.494-.588.271-1.13.342-1.625-.176-.059-.06-.153-.094-.235-.142-1.967-1.26-4.993-.07-5.358 2.615-.06.436-.012.883-.012 1.33-3.027-.223-5.43-1.613-7.408-3.838-.8 1.825-.506 3.403.896 4.792-.036.024-.071.06-.118.083-.4-.118-.813-.236-1.307-.377z" fill="#D4DEFB"/><circle cx="34.075" cy="30.695" r="10.114" transform="rotate(135 34.075 30.695)" fill="#fff"/><path d="M40.424 24.339a8.989 8.989 0 00-12.715 0 8.989 8.989 0 000 12.714 8.989 8.989 0 0012.715 0 8.989 8.989 0 000-12.714zm-4.91 11.143a.435.435 0 01-.435.436l-2.028-.003a.435.435 0 01-.436-.436l.016-3.347-3.35.012a.435.435 0 01-.436-.435l.002-2.028c0-.241.195-.436.436-.436l3.348.015-.013-3.35c0-.24.195-.436.436-.436h2.03c.241 0 .436.195.436.436l-.018 3.35 3.35-.012c.241 0 .436.194.436.435v2.03a.436.436 0 01-.436.437l-3.35-.018.013 3.35z" fill="#4A73E8"/></svg>