<svg width="46" height="43" viewBox="0 0 46 43" fill="none" xmlns="http://www.w3.org/2000/svg"><path d="M17.982 0C27.91-.035 35.952 7.996 36 17.982c.047 9.904-8.032 18.006-17.97 18.018C8.09 36.023.011 27.969 0 18.018-.012 8.078 8.02.035 17.982 0zm1.531 13.86c.365-.129.707-.27 1.048-.34.848-.19 1.496.247 1.684 1.106.142.636.024 1.237-.282 1.79a52.386 52.386 0 01-1.696 2.815c-.224.341-.53.647-.836.918-.342.306-.613.26-.836-.141a6.346 6.346 0 01-.448-1.001c-.636-1.896-1.013-3.863-1.342-5.841-.165-.99-.377-1.979-.895-2.862-.518-.86-1.201-1.142-2.167-.871a4.7 4.7 0 00-.978.388c-1.46.754-2.65 1.861-3.792 3.015-.365.365-.706.754-1.06 1.143.295.388.554.718.801 1.048.342-.2.636-.4.942-.566.966-.494 1.32-.365 1.66.66.766 2.355 1.496 4.734 2.274 7.089.306.93.588 1.884 1.06 2.732 1.118 2.014 2.814 2.355 4.592 1.013 2.862-2.19 5.252-4.805 7.03-7.937.943-1.66 1.626-3.427 1.802-5.347.2-2.143-1.107-3.544-3.25-3.462-1.743.07-3.12.872-4.216 2.202a5.107 5.107 0 00-1.095 2.45z" fill="#D4DEFB"/><circle cx="34.071" cy="30.695" r="10.115" transform="rotate(135 34.07 30.695)" fill="#fff"/><path d="M40.424 24.339a8.99 8.99 0 00-12.715 0 8.99 8.99 0 000 12.715 8.99 8.99 0 0012.715 0 8.99 8.99 0 000-12.715zm-4.91 11.143a.435.435 0 01-.435.436l-2.028-.002a.435.435 0 01-.436-.436l.016-3.348-3.35.013a.435.435 0 01-.436-.436l.002-2.028c0-.24.195-.436.436-.436l3.348.016-.013-3.35c0-.242.195-.436.436-.436h2.03c.241 0 .436.194.436.435l-.018 3.35 3.35-.012c.241 0 .436.195.436.436v2.03a.435.435 0 01-.435.436l-3.351-.018.013 3.35z" fill="#4A73E8"/></svg>